<?xml version="1.0" encoding="UTF-8" standalone="no"?>
<svg
   xmlns:dc="http://purl.org/dc/elements/1.1/"
   xmlns:cc="http://creativecommons.org/ns#"
   xmlns:rdf="http://www.w3.org/1999/02/22-rdf-syntax-ns#"
   xmlns:svg="http://www.w3.org/2000/svg"
   xmlns="http://www.w3.org/2000/svg"
   viewBox="0 0 2666.6667 2666.6667"
   height="2666.6667"
   width="2666.6667"
   xml:space="preserve"
   id="svg2"
   version="1.1"><metadata
     id="metadata8"><rdf:RDF><cc:Work
         rdf:about=""><dc:format>image/svg+xml</dc:format><dc:type
           rdf:resource="http://purl.org/dc/dcmitype/StillImage" /></cc:Work></rdf:RDF></metadata><defs
     id="defs6" /><g
     transform="matrix(1.3333333,0,0,-1.3333333,0,2666.6667)"
     id="g10"><g
       transform="scale(0.1)"
       id="g12"><g
         transform="scale(1.22699)"
         id="g14"><path
           id="path16"
           style="fill:#ffffff;fill-opacity:0;fill-rule:nonzero;stroke:none"
           d="M 16300,0 H 0 V 16300 H 16300 V 0" /></g><path
         id="path18"
         style="fill:#211d1d;fill-opacity:1;fill-rule:nonzero;stroke:none"
         d="m 7339.21,10419.6 c 0,-1057.3 -553.39,-1914.4 -1236.03,-1914.4 -682.64,0 -1236.04,857.1 -1236.04,1914.4 0,1057.4 553.4,1914.5 1236.04,1914.5 682.64,0 1236.03,-857.1 1236.03,-1914.5" /><path
         id="path20"
         style="fill:#211d1d;fill-opacity:1;fill-rule:nonzero;stroke:none"
         d="m 9614.15,12883.1 c 0,-1057.3 -553.39,-1914.4 -1236.04,-1914.4 -682.64,0 -1236.03,857.1 -1236.03,1914.4 0,1057.4 553.39,1914.5 1236.03,1914.5 682.65,0 1236.04,-857.1 1236.04,-1914.5" /><path
         id="path22"
         style="fill:#211d1d;fill-opacity:1;fill-rule:nonzero;stroke:none"
         d="m 12837.7,12596.1 c -245.5,-1028.4 -982.8,-1733.6 -1646.8,-1575.1 -664,158.5 -1003.2,1120.7 -757.7,2149.1 245.5,1028.5 982.7,1733.7 1646.7,1575.2 664,-158.5 1003.3,-1120.7 757.8,-2149.2" /><path
         id="path24"
         style="fill:#211d1d;fill-opacity:1;fill-rule:nonzero;stroke:none"
         d="M 14895,10047.7 C 14469.3,9079.9 13617.6,8518.2 12992.7,8793 c -624.8,274.9 -786.2,1282.3 -360.4,2250.2 425.7,967.8 1277.4,1529.5 1902.3,1254.6 624.8,-274.9 786.2,-1282.3 360.4,-2250.1" /><path
         id="path26"
         style="fill:#211d1d;fill-opacity:1;fill-rule:nonzero;stroke:none"
         d="m 13180.3,5950.5 c -202.6,-504.9 -600.9,-687.5 -1043.6,-715.1 -274.9,-17.3 -567,25.3 -839.8,87.5 -908.7,207.3 -1863.73,208.5 -2772.85,3.3 -190.33,-43 -381.25,-87.2 -567.22,-109.2 -393.28,-46.9 -764.28,4.8 -1059.62,375.1 -376.65,472.2 -299.11,1231.9 -141.3,1773.3 172.54,592.6 507.59,1143 860.68,1644.2 543.65,771.7 1717.7,2376 2847.71,1821.8 819.3,-401.9 1156.5,-1363.7 1654,-2128.6 280.6,-431.3 630.2,-817.8 875.6,-1270.1 245.3,-452.3 378.1,-1004.7 186.4,-1482.2" /><path
         id="path28"
         style="fill:#363233;fill-opacity:1;fill-rule:nonzero;stroke:none"
         d="m 7956.83,5217 c -204.24,33.3 -393.98,129.2 -557.68,334.6 -337.53,422.9 -268,1103.5 -126.69,1588.6 154.62,530.8 454.79,1023.9 771.11,1472.8 417.56,592.9 1250.62,1734.3 2117.83,1734.3 144.1,0 289,-31.5 433.3,-102.3 734,-359.9 1036,-1221.5 1481.8,-1906.8 251.4,-386.3 564.5,-732.6 784.3,-1137.8 219.8,-405.2 338.7,-900 167,-1327.8 -174.8,-435.6 -512.2,-603.3 -891.1,-637.2 v 0 c -41.7,-2.7 -83.8,-3.9 -126.2,-3.9 -236.9,0 -482.2,38.6 -713.6,91.4 -456.8,104.2 -925.4,156.3 -1393.85,156.3 -463.49,0 -926.88,-50.9 -1379,-153 -190.33,-43 -381.25,-87.2 -567.22,-109.2 v 0" /></g></g></svg>